<?xml version="1.0" standalone="no"?>
<!DOCTYPE svg PUBLIC "-//W3C//DTD SVG 20010904//EN"
 "http://www.w3.org/TR/2001/REC-SVG-20010904/DTD/svg10.dtd">
<svg version="1.0" xmlns="http://www.w3.org/2000/svg"
 width="668.000000pt" height="527.000000pt" viewBox="0 0 668.000000 527.000000"
 preserveAspectRatio="xMidYMid meet">

<g transform="translate(0.000000,527.000000) scale(0.100000,-0.100000)"
fill="#000000" stroke="none">
<path d="M0 2635 l0 -2635 3340 0 3340 0 0 2635 0 2635 -3340 0 -3340 0 0
-2635z m1534 650 c83 -39 86 -158 6 -200 -102 -53 -208 52 -156 154 15 29 67
60 99 61 11 0 33 -7 51 -15z m-336 -181 c44 -30 21 -94 -34 -94 -25 0 -54 30
-54 56 0 22 33 54 55 54 6 0 21 -7 33 -16z m635 -23 c33 -13 43 -46 23 -76
-36 -55 -120 -13 -97 48 14 35 34 43 74 28z m-905 -80 c-2 -9 -13 -17 -26 -19
-16 -3 -22 2 -22 16 0 11 6 22 13 25 20 7 38 -4 35 -22z m206 -33 c15 -24 -13
-53 -43 -43 -21 6 -29 43 -14 59 12 12 45 2 57 -16z m944 -41 c4 -20 -25 -34
-40 -19 -15 15 -1 44 19 40 10 -2 19 -11 21 -21z m-59 -59 c13 -23 13 -29 -3
-52 -14 -23 -23 -27 -54 -24 -44 4 -75 45 -56 75 29 47 87 47 113 1z m675 16
c33 -34 35 -64 2 -64 -13 0 -29 7 -36 15 -13 16 -76 20 -98 6 -9 -5 -12 -31
-10 -92 l3 -84 44 -3 c24 -2 49 2 54 7 14 14 67 14 67 0 0 -59 -90 -95 -169
-68 -47 17 -61 53 -61 159 0 88 1 93 29 121 26 26 37 29 89 29 51 0 63 -4 86
-26z m261 10 c41 -27 58 -140 34 -227 -18 -65 -90 -93 -168 -66 -47 17 -61 53
-61 159 0 88 1 93 29 121 26 25 37 29 86 29 34 0 65 -6 80 -16z m230 6 c6 0
28 3 51 6 34 5 45 2 72 -21 l32 -27 0 -134 0 -134 -30 0 -29 0 -3 128 -3 127
-25 0 -25 0 -5 -125 -5 -125 -30 0 -30 0 -3 123 c-2 97 -6 124 -17 129 -36 13
-45 -15 -45 -138 l0 -119 -30 0 -30 0 0 131 0 131 30 30 c27 27 35 29 73 24
23 -3 47 -6 52 -6z m399 -15 c32 -30 36 -91 7 -126 -15 -19 -32 -25 -83 -29
l-63 -5 -5 -65 c-5 -62 -6 -65 -32 -68 l-28 -3 0 160 0 161 89 0 c80 0 91 -2
115 -25z m128 -97 l3 -123 50 0 50 0 3 123 3 122 29 0 30 0 0 -126 c0 -69 -5
-134 -10 -145 -33 -61 -165 -64 -204 -4 -12 19 -16 53 -16 150 l0 125 30 0 29
0 3 -122z m418 92 c0 -27 -3 -30 -34 -30 -22 0 -36 -6 -40 -16 -3 -9 -6 -67
-6 -130 l0 -114 -25 0 -24 0 -3 128 -3 127 -37 3 c-35 3 -38 6 -38 33 l0 29
105 0 105 0 0 -30z m270 0 l0 -29 -82 -3 c-82 -3 -83 -3 -86 -30 l-3 -28 85 0
86 0 0 -30 0 -29 -82 -3 -83 -3 0 -30 0 -30 83 -3 82 -3 0 -34 0 -35 -70 0
c-78 0 -133 18 -149 48 -15 28 -14 198 1 225 21 40 40 46 131 47 l87 0 0 -30z
m244 7 c21 -21 23 -31 24 -161 l1 -137 -27 3 c-25 3 -27 7 -30 58 -4 69 -15
82 -66 78 l-41 -3 -3 -67 c-3 -68 -3 -68 -32 -68 l-30 0 0 160 0 160 90 0 c81
0 93 -2 114 -23z m230 -7 c14 -75 39 -141 49 -137 7 2 21 39 33 83 20 76 22
79 51 82 l31 3 -34 -128 c-19 -70 -38 -141 -42 -158 -7 -24 -14 -31 -39 -33
-23 -2 -33 2 -37 15 -20 66 -76 280 -76 290 0 8 12 13 29 13 24 0 29 -5 35
-30z m256 -130 l0 -160 -30 0 -30 0 0 160 0 160 30 0 30 0 0 -160z m220 130
c0 -29 -1 -30 -47 -30 -57 0 -76 -10 -71 -36 3 -15 15 -20 63 -25 71 -8 105
-39 105 -95 0 -76 -42 -104 -155 -104 l-75 0 0 35 0 35 80 0 c65 0 82 3 87 16
11 29 -11 49 -58 52 -55 3 -84 17 -98 49 -18 40 -13 73 18 104 26 26 36 29 90
29 l61 0 0 -30z m150 -130 l0 -160 -30 0 -30 0 0 160 0 160 30 0 30 0 0 -160z
m241 131 c28 -28 29 -33 29 -125 0 -92 -1 -97 -29 -128 -27 -30 -34 -33 -90
-33 -53 0 -64 4 -88 28 -27 27 -28 31 -28 133 0 103 1 106 28 130 23 20 39 24
88 24 54 0 64 -3 90 -29z m270 0 l29 -29 0 -131 0 -131 -30 0 -30 0 0 124 c0
136 0 136 -65 136 -48 0 -55 -20 -55 -149 l0 -111 -30 0 -30 0 0 120 c0 172
17 199 123 200 52 0 62 -4 88 -29z m-5098 -49 c78 -73 -28 -193 -125 -141 -11
6 -26 26 -34 45 -20 47 1 99 48 119 41 17 75 10 111 -23z m-13 -210 c50 -41
-12 -112 -66 -77 -28 18 -32 56 -8 79 20 21 47 20 74 -2z m1287 -48 c8 -20 -9
-36 -30 -28 -20 7 -22 30 -4 37 21 9 27 7 34 -9z m-131 -22 c22 -14 27 -53 8
-73 -30 -33 -94 -15 -94 27 0 44 50 70 86 46z m-1094 -59 c22 -20 24 -66 2
-87 -35 -36 -104 -7 -104 42 0 54 62 81 102 45z m-165 -45 c15 -14 23 -33 23
-55 0 -46 -13 -68 -49 -83 -61 -25 -121 15 -121 81 0 30 7 43 32 64 37 31 77
29 115 -7z m1191 -21 c8 -6 12 -25 10 -46 -2 -27 -10 -39 -30 -51 -25 -13 -31
-13 -55 0 -23 13 -28 23 -28 55 0 32 5 42 25 52 25 13 54 9 78 -10z m2012 -16
c0 -13 -8 -21 -22 -23 -21 -3 -23 -9 -26 -85 -2 -64 -6 -83 -17 -83 -11 0 -15
19 -17 82 -3 78 -4 82 -28 88 -14 3 -26 14 -28 23 -3 15 6 17 67 17 63 0 71
-2 71 -19z m154 -82 c15 -56 25 -104 22 -106 -14 -15 -35 11 -46 56 -7 28 -16
53 -20 56 -9 5 -11 0 -30 -72 -8 -33 -15 -43 -32 -43 -16 0 -19 4 -14 23 3 12
16 59 27 105 19 72 24 82 44 82 19 0 25 -12 49 -101z m76 33 c0 -75 12 -99 50
-104 37 -5 32 -32 -7 -36 -56 -6 -73 23 -73 123 0 69 3 85 15 85 12 0 15 -14
15 -68z m140 28 c0 -33 3 -40 20 -40 17 0 20 7 20 40 0 33 3 40 20 40 17 0 20
-7 20 -42 0 -24 7 -52 15 -62 20 -27 20 -106 0 -106 -10 0 -15 11 -15 35 0 28
-5 38 -24 47 -39 17 -56 4 -56 -42 0 -33 -3 -40 -20 -40 -19 0 -20 7 -20 105
0 98 1 105 20 105 17 0 20 -7 20 -40z m260 21 c0 -16 -8 -20 -37 -23 -27 -2
-39 -8 -41 -20 -3 -15 4 -18 32 -18 44 0 76 -29 76 -69 0 -41 -32 -61 -97 -61
-46 0 -53 3 -53 20 0 17 7 20 49 20 57 0 86 22 52 39 -11 6 -31 11 -45 11 -33
0 -56 25 -56 60 0 37 32 60 82 60 31 0 38 -4 38 -19z m-3810 -171 c0 -13 -7
-20 -20 -20 -13 0 -20 7 -20 20 0 13 7 20 20 20 13 0 20 -7 20 -20z m267 -92
c18 -15 16 -58 -4 -80 -20 -22 -66 -24 -87 -2 -24 23 -20 70 7 89 23 16 60 13
84 -7z m887 -34 c9 -8 16 -25 16 -37 -1 -77 -111 -85 -118 -9 -2 18 2 40 9 48
15 19 74 18 93 -2z m-629 -94 c0 -20 -5 -25 -25 -25 -20 0 -26 6 -28 28 -3 26
-1 28 25 25 22 -2 28 -8 28 -28z m317 9 c11 -6 26 -26 34 -45 12 -29 12 -39 1
-66 -24 -57 -68 -76 -124 -53 -62 26 -75 114 -22 158 24 19 80 23 111 6z
m-624 -43 c5 -25 -12 -39 -37 -31 -20 6 -28 34 -14 49 13 13 48 1 51 -18z
m827 -2 c0 -10 -8 -20 -18 -22 -22 -4 -35 27 -16 39 20 12 34 5 34 -17z m-440
-119 c0 -26 -3 -30 -29 -30 -32 0 -53 23 -43 49 5 12 16 16 39 14 29 -3 33 -6
33 -33z"/>
<path d="M2832 2842 c-9 -6 -12 -32 -10 -93 l3 -84 50 0 50 0 0 90 0 90 -40 3
c-22 1 -46 -2 -53 -6z"/>
<path d="M3440 2820 l0 -31 53 3 c48 3 52 5 52 28 0 23 -4 25 -52 28 l-53 3 0
-31z"/>
<path d="M4500 2820 l0 -31 53 3 c48 3 52 5 52 28 0 23 -4 25 -52 28 l-53 3 0
-31z"/>
<path d="M5602 2838 c-18 -18 -16 -152 2 -167 8 -7 34 -11 58 -9 l43 3 3 78
c2 50 -1 84 -9 93 -14 17 -80 19 -97 2z"/>
</g>
</svg>
